<svg xmlns="http://www.w3.org/2000/svg" width="124" height="69" viewBox="0 0 124 69" fill="none"><path d="M47.1531 52.6958C44.0807 54.2328 41.2597 55.6306 38.4525 57.0537C35.4678 58.5676 32.5011 60.1173 29.5132 61.6249C28.7684 62.0007 27.9918 62.3343 27.1963 62.5813C24.837 63.3171 22.3806 62.7555 22.3373 59.3129C22.2517 52.625 21.7023 45.9435 21.4762 39.2556C21.4234 37.6805 20.8677 36.723 19.6284 35.8204C16.4757 33.5253 13.1392 31.3738 10.4091 28.6353C7.33247 25.5474 4.22099 22.5323 0.903484 19.7104C0.412198 19.2924 -0.139311 18.3348 0.0318472 17.8946C0.274849 17.2686 1.10317 16.5771 1.77829 16.4589C6.26326 15.6692 10.7672 14.9809 15.2765 14.3401C34.6036 11.5921 53.9508 8.975 73.261 6.10772C88.7116 3.81263 104.136 1.35285 119.718 0.0701713C120.18 0.0321661 120.648 -0.0227302 121.109 0.00999646C122.222 0.0891739 123.607 0.0638371 123.885 1.36657C124.144 2.5859 124.011 3.98471 122.919 4.95067C122.084 5.68966 121.176 6.3442 120.326 7.06735C119.123 8.09349 117.9 9.10168 116.763 10.1964C98.1961 28.0578 79.6297 45.9203 62.2773 64.9883C61.4025 65.9501 60.5678 66.9773 59.5567 67.7743C59.0697 68.1596 58.0691 68.3739 57.5747 68.1248C57.1521 67.9116 57.076 66.935 56.927 66.2773C56.796 65.6977 56.9883 64.926 56.6734 64.527C53.9064 61.0252 51.0548 57.5889 48.2349 54.1294C47.8884 53.7039 47.5725 53.2521 47.1541 52.6947L47.1531 52.6958ZM116.026 5.82374C91.5474 17.2907 66.3502 27.3685 43.4288 42.0036C45.2376 45.3565 57.6317 60.6969 59.8874 62.3712C77.9837 42.9569 97.0688 24.5107 116.025 5.82268L116.026 5.82374ZM23.79 33.9624C24.3384 33.7744 24.7737 33.6256 25.2089 33.4767C38.0468 29.0914 50.8805 24.6901 63.7258 20.3259C77.3624 15.6924 91.0128 11.097 104.653 6.46982C105.562 6.16156 106.43 5.72872 107.316 5.35395C107.251 5.16287 107.185 4.97284 107.12 4.78176C95.7661 5.94092 84.5109 7.84012 73.2314 9.55036C62.0205 11.25 50.8076 12.9307 39.5946 14.6124C28.3468 16.2984 16.987 17.2221 5.78359 19.2079C5.72865 19.4159 5.67371 19.6228 5.61877 19.8308C11.6125 24.4917 17.6062 29.1536 23.79 33.9624ZM76.065 20.3797C75.991 20.1971 75.9171 20.0145 75.8431 19.8308C58.8045 25.4914 41.7658 31.1521 24.5454 36.8729C24.8952 43.3855 25.2311 49.6395 25.5671 55.8935C25.7541 55.9399 25.9411 55.9864 26.1281 56.0328C30.1524 51.6137 34.1768 47.1956 38.2011 42.7764C37.7816 41.7313 37.6232 40.74 37.9443 39.9408C38.3141 39.0234 39.1911 37.8885 40.2518 38.3509C41.9845 39.1068 43.0527 38.1049 44.3152 37.4293C54.216 32.1276 64.1188 26.8269 74.0185 21.523C74.7074 21.1536 75.3835 20.7608 76.066 20.3797H76.065ZM44.9343 49.9193C43.5249 48.1362 42.3427 46.6403 40.9174 44.8382C36.9375 49.1307 33.1519 53.2152 29.3664 57.2986C29.4953 57.4643 29.6252 57.6301 29.7541 57.7948C34.6945 55.2315 39.6348 52.6683 44.9343 49.9193Z" fill="#212121"></path><path d="M116.026 5.82422C97.0697 24.5122 77.9845 42.9585 59.8883 62.3728C57.6326 60.6974 45.2385 45.3581 43.4297 42.0052C66.35 27.37 91.5472 17.2912 116.027 5.82527L116.026 5.82422Z" fill="#F56341"></path><path d="M23.7904 33.9619C17.6065 29.1521 11.6128 24.4912 5.61914 19.8303C5.67408 19.6223 5.72902 19.4154 5.78396 19.2074C16.9874 17.2227 28.3472 16.2989 39.595 14.6119C50.808 12.9313 62.0209 11.2495 73.2318 9.54985C84.5123 7.83961 95.7665 5.94041 107.12 4.78125C107.185 4.97233 107.251 5.16236 107.316 5.35344C106.43 5.72821 105.563 6.16105 104.653 6.46931C91.0131 11.0964 77.3638 15.6919 63.7261 20.3254C50.8809 24.6896 38.0483 29.0909 25.2093 33.4762C24.774 33.6251 24.3377 33.7739 23.7904 33.9619Z" fill="#F56341"></path><path d="M76.0655 20.3771C75.383 20.7593 74.7068 21.152 74.018 21.5204C64.1172 26.8242 54.2154 32.1249 44.3147 37.4266C43.0521 38.1023 41.9851 39.1041 40.2513 38.3483C39.1905 37.8859 38.3136 39.0207 37.9438 39.9382C37.6226 40.7373 37.7811 41.7286 38.2006 42.7738C34.1762 47.1929 30.1519 51.611 26.1276 56.0302C25.9406 55.9837 25.7536 55.9373 25.5666 55.8908C25.2306 49.6369 24.8946 43.3829 24.5449 36.8703C41.7653 31.1495 58.8039 25.4888 75.8426 19.8281C75.9165 20.0108 75.9905 20.1934 76.0645 20.3771H76.0655Z" fill="#F56341"></path><path d="M44.9332 49.9209C39.6336 52.67 34.6933 55.2332 29.753 57.7964C29.6241 57.6307 29.4941 57.465 29.3652 57.3003C33.1508 53.2168 36.9363 49.1323 40.9163 44.8398C42.3415 46.643 43.5238 48.1389 44.9332 49.9209Z" fill="#F56341"></path><path d="M115.55 18.9468C106.209 22.7347 99.7521 31.7778 96.0584 40.9011C95.7531 41.6549 96.8551 42.1817 97.3675 41.6634C104.043 34.91 111.425 27.9435 116.066 19.6182C116.241 19.3036 115.94 18.7885 115.549 18.9479L115.55 18.9468Z" fill="#212121"></path><path d="M19.3443 6.65672C23.9053 8.21388 30.2361 6.8932 34.6576 5.29698C35.0306 5.16185 35.1489 4.4862 34.6576 4.41653C29.8938 3.74088 23.543 3.66065 19.282 6.17955C19.0802 6.29884 19.1362 6.58494 19.3443 6.65672Z" fill="#212121"></path></svg>